<svg width="18" height="19" viewBox="0 0 18 19" fill="none" xmlns="http://www.w3.org/2000/svg">
<path d="M15.419 2.21623C14.8408 1.63765 14.4463 1.24285 14.0171 0.99508C12.8568 0.325208 11.4274 0.325208 10.2671 0.99508C9.83794 1.24285 9.4434 1.63765 8.86521 2.21623L8.53552 2.54592L11.9654 5.97579C12.2583 6.26868 12.2583 6.74356 11.9654 7.03645C11.6725 7.32934 11.1976 7.32934 10.9047 7.03645L7.47486 3.60658L1.73767 9.34379C1.37542 9.70587 1.12478 9.9564 0.926875 10.246C0.663853 10.6309 0.474906 11.0615 0.369723 11.5157C0.290584 11.8574 0.275911 12.2114 0.254705 12.7232L0.145963 15.3332C0.136315 15.5644 0.127516 15.7754 0.132585 15.952C0.137994 16.1404 0.159514 16.3496 0.242392 16.5621C0.420236 17.0181 0.780905 17.3787 1.23689 17.5566C1.44938 17.6395 1.65854 17.661 1.84703 17.6664C2.02359 17.6715 2.23444 17.6627 2.46559 17.653L5.07578 17.5443C5.58753 17.5231 5.9416 17.5084 6.28332 17.4293C6.73749 17.3241 7.16807 17.1351 7.55298 16.8721C7.84259 16.6742 8.09311 16.4236 8.45519 16.0613L15.5828 8.93377C16.1613 8.35558 16.5561 7.96104 16.8039 7.53189C17.4738 6.37164 17.4738 4.94214 16.8039 3.78189C16.5561 3.35274 16.1613 2.9582 15.5828 2.38L15.419 2.21623Z" fill="#6D51FF"/>
<path d="M10 17.25C9.58579 17.25 9.25 17.5858 9.25 18C9.25 18.4142 9.58579 18.75 10 18.75H17C17.4142 18.75 17.75 18.4142 17.75 18C17.75 17.5858 17.4142 17.25 17 17.25H10Z" fill="#6D51FF"/>
</svg>
