<svg width="22" height="20" viewBox="0 0 22 20" fill="none" xmlns="http://www.w3.org/2000/svg">
<path fill-rule="evenodd" clip-rule="evenodd" d="M7 1.75C4.1102 1.75 1.75 4.12796 1.75 7.08312C1.75 10.1141 3.33128 14.8974 9.74102 17.9033C10.1494 18.0948 10.28 18.1533 10.5106 18.2047C10.7588 18.26 11.2412 18.26 11.4894 18.2047C11.72 18.1533 11.8506 18.0948 12.259 17.9033C18.6687 14.8974 20.25 10.1141 20.25 7.08312C20.25 4.12796 17.8898 1.75 15 1.75C13.658 1.75 12.4338 2.2606 11.504 3.10437C11.2181 3.36381 10.7819 3.36381 10.496 3.10437C9.56616 2.2606 8.342 1.75 7 1.75ZM0.25 7.08312C0.25 3.31906 3.26238 0.25 7 0.25C8.49758 0.25 9.88143 0.744377 11 1.57853C12.1186 0.744377 13.5024 0.25 15 0.25C18.7376 0.25 21.75 3.31906 21.75 7.08312C21.75 10.6575 19.8662 15.9926 12.8959 19.2614L12.8657 19.2755C12.4867 19.4533 12.219 19.5789 11.8156 19.6688C11.3526 19.772 10.6474 19.772 10.1844 19.6688C9.78103 19.5789 9.51326 19.4533 9.13428 19.2755L9.10415 19.2614C2.13376 15.9926 0.25 10.6575 0.25 7.08312Z" fill="#6D51FF"/>
</svg>
