<svg width="20" height="21" viewBox="0 0 20 21" fill="none" xmlns="http://www.w3.org/2000/svg">
<path fill-rule="evenodd" clip-rule="evenodd" d="M6.25003 15C6.25003 12.9289 7.92896 11.25 10 11.25C12.0711 11.25 13.75 12.9289 13.75 15V20C13.75 20.4142 13.4142 20.75 13 20.75H7.00003C6.58582 20.75 6.25003 20.4142 6.25003 20V15ZM10 12.75C8.75739 12.75 7.75003 13.7574 7.75003 15V19.25H12.25V15C12.25 13.7574 11.2427 12.75 10 12.75Z" fill="#7D8588"/>
<path fill-rule="evenodd" clip-rule="evenodd" d="M10.7302 1.67238C10.257 1.51 9.74309 1.51 9.26982 1.67238C8.94377 1.78426 8.62005 2.02348 7.69776 2.74082L3.19775 6.24082C2.60363 6.70292 2.40314 6.86459 2.25377 7.04843C2.03771 7.31436 1.88523 7.62612 1.80797 7.95993C1.75456 8.1907 1.75003 8.44821 1.75003 9.20089V15.5C1.75003 16.2092 1.75044 16.7035 1.77684 17.0904C1.80278 17.4706 1.85128 17.692 1.9213 17.8611C2.14966 18.4124 2.58768 18.8504 3.13899 19.0787C3.30803 19.1488 3.52943 19.1973 3.90962 19.2232C4.29654 19.2496 4.79086 19.25 5.50003 19.25H14.5C15.2092 19.25 15.7035 19.2496 16.0904 19.2232C16.4706 19.1973 16.692 19.1488 16.8611 19.0787C17.4124 18.8504 17.8504 18.4124 18.0788 17.8611C18.1488 17.692 18.1973 17.4706 18.2232 17.0904C18.2496 16.7035 18.25 16.2092 18.25 15.5V9.20089C18.25 8.44821 18.2455 8.1907 18.1921 7.95993C18.1148 7.62612 17.9624 7.31436 17.7463 7.04843C17.5969 6.86459 17.3964 6.70292 16.8023 6.24082L12.3023 2.74082C11.38 2.02348 11.0563 1.78426 10.7302 1.67238ZM8.78302 0.253574C9.57179 -0.0170604 10.4283 -0.0170604 11.217 0.253574C11.8107 0.457268 12.3431 0.871695 13.1169 1.47407C13.1519 1.50126 13.1873 1.52884 13.2232 1.55679L17.7232 5.05679C17.7457 5.07426 17.7678 5.09148 17.7897 5.10847C18.2922 5.49907 18.6395 5.76905 18.9105 6.10255C19.2706 6.54576 19.5247 7.06535 19.6535 7.62171C19.7503 8.04034 19.7502 8.48023 19.75 9.11668C19.75 9.14437 19.75 9.17244 19.75 9.20089V15.5267C19.75 16.203 19.75 16.7485 19.7197 17.1925C19.6886 17.6491 19.6229 18.0528 19.4646 18.4351C19.084 19.3539 18.3539 20.084 17.4351 20.4646C17.0528 20.6229 16.6491 20.6886 16.1926 20.7197C15.7485 20.75 15.203 20.75 14.5267 20.75H5.47339C4.79707 20.75 4.25152 20.75 3.80751 20.7197C3.35095 20.6886 2.94724 20.6229 2.56497 20.4646C1.64611 20.084 0.916085 19.3539 0.535482 18.4351C0.377139 18.0528 0.311466 17.6491 0.280315 17.1925C0.250021 16.7485 0.250025 16.203 0.250031 15.5266L0.250031 9.20089C0.250031 9.17244 0.250023 9.14438 0.250015 9.11669C0.249836 8.48024 0.249713 8.04034 0.346604 7.62171C0.475368 7.06535 0.729494 6.54576 1.0896 6.10255C1.36057 5.76905 1.70787 5.49908 2.21037 5.10847C2.23223 5.09148 2.25439 5.07426 2.27684 5.05679L6.77684 1.55679C6.81279 1.52883 6.84821 1.50126 6.88314 1.47407C7.65697 0.871693 8.18934 0.457268 8.78302 0.253574Z" fill="#7D8588"/>
</svg>
