<svg width="22" height="21" viewBox="0 0 22 21" fill="none" xmlns="http://www.w3.org/2000/svg">
<path fill-rule="evenodd" clip-rule="evenodd" d="M9.37955 0.589597C10.2281 0.101848 11.2719 0.101848 12.1205 0.589597C12.5 0.807756 12.7875 1.14933 13.0522 1.53285C13.3152 1.91407 13.6104 2.42089 13.9746 3.0461L14.6121 4.14067C14.8457 4.54178 14.9116 4.64746 14.9867 4.73051C15.1031 4.85928 15.245 4.96239 15.4034 5.03329C15.5056 5.07902 15.6265 5.10903 16.0802 5.20728L17.3182 5.47536C18.0253 5.62848 18.5985 5.75261 19.0424 5.88502C19.4889 6.01823 19.9026 6.18609 20.2274 6.47963C20.9535 7.13592 21.2761 8.12866 21.0744 9.0864C20.9842 9.51477 20.7482 9.89374 20.4652 10.264C20.184 10.632 19.7932 11.0693 19.3111 11.6088L18.4671 12.5534C18.1578 12.8996 18.0777 12.9949 18.0219 13.092C17.9354 13.2424 17.8812 13.4093 17.8627 13.5819C17.8508 13.6932 17.8596 13.8174 17.9063 14.2792L18.0339 15.5395C18.1068 16.2594 18.1659 16.8429 18.1771 17.3059C18.1884 17.7718 18.1566 18.2171 17.9778 18.6167C17.578 19.51 16.7335 20.1236 15.7604 20.2277C15.3251 20.2743 14.8917 20.167 14.4522 20.0123C14.0153 19.8585 13.4785 19.622 12.8165 19.3302L11.6573 18.8194C11.2325 18.6322 11.1171 18.5855 11.0076 18.5624C10.8377 18.5266 10.6623 18.5266 10.4924 18.5624C10.3829 18.5855 10.2675 18.6322 9.84269 18.8194L8.68354 19.3302C8.02146 19.622 7.48475 19.8585 7.04783 20.0123C6.60827 20.167 6.17492 20.2743 5.73964 20.2277C4.76646 20.1236 3.92199 19.51 3.52219 18.6167C3.34338 18.2171 3.31156 17.7718 3.32286 17.3059C3.33409 16.8429 3.39318 16.2593 3.46607 15.5395L3.59367 14.2792C3.64043 13.8174 3.64924 13.6932 3.63732 13.5819C3.61885 13.4093 3.56464 13.2424 3.47814 13.092C3.42235 12.9949 3.34221 12.8996 3.03293 12.5534L2.18891 11.6088C1.70684 11.0693 1.31605 10.632 1.03479 10.264C0.751836 9.89374 0.515818 9.51477 0.425619 9.0864C0.223955 8.12866 0.546516 7.13592 1.27261 6.47963C1.59737 6.18609 2.01107 6.01823 2.4576 5.88502C2.90146 5.75261 3.47469 5.62848 4.18182 5.47536L5.41984 5.20728C5.87352 5.10903 5.99438 5.07902 6.09657 5.03329C6.25499 4.96239 6.39692 4.85928 6.5133 4.73051C6.58837 4.64746 6.65427 4.54178 6.8879 4.14067L7.52542 3.04611C7.88956 2.4209 8.18475 1.91407 8.44785 1.53285C8.71252 1.14933 9.00002 0.807756 9.37955 0.589597ZM11.3729 1.89006C10.9872 1.66836 10.5128 1.66836 10.1271 1.89006C10.0438 1.93795 9.91103 2.05355 9.6824 2.38484C9.45598 2.71292 9.18951 3.16937 8.80575 3.82825L8.18406 4.89562C8.17315 4.91436 8.16237 4.93288 8.15173 4.95117C7.96563 5.27107 7.81931 5.52258 7.62611 5.73633C7.37006 6.01961 7.05782 6.24646 6.70928 6.40244C6.44628 6.52014 6.16187 6.58157 5.80011 6.65972C5.77943 6.66419 5.7585 6.66871 5.7373 6.6733L4.53006 6.93472C3.78484 7.09609 3.26838 7.20847 2.8864 7.32242C2.50067 7.43749 2.34971 7.528 2.27843 7.59244C1.94839 7.89075 1.80177 8.34199 1.89343 8.77733C1.91323 8.87136 1.98216 9.03331 2.22658 9.35313C2.46863 9.66984 2.82041 10.0643 3.32845 10.6329L4.15146 11.554C4.16592 11.5702 4.1802 11.5861 4.1943 11.6019C4.44104 11.8778 4.63502 12.0946 4.77861 12.3444C4.9689 12.6755 5.08817 13.0426 5.1288 13.4222C5.15947 13.7087 5.13001 13.9982 5.09254 14.3664C5.0904 14.3875 5.08823 14.4088 5.08604 14.4303L4.96162 15.6593C4.88481 16.4179 4.83209 16.9438 4.82242 17.3423C4.81266 17.7447 4.8521 17.9163 4.89135 18.004C5.07307 18.41 5.45692 18.6889 5.89928 18.7363C5.99482 18.7465 6.17015 18.731 6.54985 18.5974C6.92586 18.465 7.40973 18.2524 8.10748 17.9449L9.23782 17.4468C9.25767 17.438 9.27727 17.4294 9.29664 17.4208C9.63523 17.2714 9.90143 17.154 10.1834 17.0946C10.557 17.0159 10.943 17.0159 11.3166 17.0946C11.5986 17.154 11.8648 17.2714 12.2034 17.4208C12.2227 17.4294 12.2423 17.438 12.2622 17.4468L13.3925 17.9449C14.0903 18.2524 14.5742 18.465 14.9502 18.5974C15.3299 18.731 15.5052 18.7465 15.6007 18.7363C16.0431 18.6889 16.4269 18.41 16.6087 18.004C16.6479 17.9163 16.6873 17.7447 16.6776 17.3423C16.6679 16.9438 16.6152 16.4179 16.5384 15.6593L16.414 14.4303C16.4118 14.4088 16.4096 14.3875 16.4075 14.3664C16.37 13.9982 16.3405 13.7087 16.3712 13.4222C16.4118 13.0426 16.5311 12.6755 16.7214 12.3444C16.865 12.0946 17.059 11.8778 17.3057 11.6019C17.3198 11.5861 17.3341 11.5702 17.3485 11.554L18.1716 10.6329C18.6796 10.0643 19.0314 9.66984 19.2734 9.35313C19.5179 9.03331 19.5868 8.87136 19.6066 8.77733C19.6982 8.34199 19.5516 7.89075 19.2216 7.59244C19.1503 7.528 18.9993 7.43749 18.6136 7.32242C18.2316 7.20847 17.7152 7.0961 16.9699 6.93472L15.7627 6.6733C15.7415 6.66871 15.7206 6.66418 15.6999 6.65972C15.3381 6.58157 15.0537 6.52014 14.7907 6.40244C14.4422 6.24646 14.1299 6.01961 13.8739 5.73633C13.6807 5.52258 13.5344 5.27107 13.3483 4.95117C13.3376 4.93288 13.3269 4.91436 13.3159 4.89562L12.6943 3.82825C12.3105 3.16937 12.044 2.71292 11.8176 2.38484C11.589 2.05355 11.4562 1.93795 11.3729 1.89006Z" fill="#7D8588"/>
</svg>
