<svg width="22" height="21" viewBox="0 0 22 21" fill="none" xmlns="http://www.w3.org/2000/svg">
<path fill-rule="evenodd" clip-rule="evenodd" d="M9.37952 0.589597C10.2281 0.101848 11.2719 0.101848 12.1204 0.589597C12.5 0.807756 12.7875 1.14933 13.0521 1.53285C13.3152 1.91407 13.6104 2.42089 13.9746 3.0461L14.6121 4.14067C14.8457 4.54178 14.9116 4.64746 14.9867 4.73051C15.1031 4.85928 15.245 4.96239 15.4034 5.03329C15.5056 5.07902 15.6265 5.10903 16.0801 5.20728L17.3181 5.47536C18.0253 5.62848 18.5985 5.75261 19.0424 5.88502C19.4889 6.01823 19.9026 6.18609 20.2274 6.47963C20.9535 7.13592 21.276 8.12866 21.0744 9.0864C20.9842 9.51477 20.7481 9.89374 20.4652 10.264C20.1839 10.632 19.7932 11.0693 19.3111 11.6088L18.4671 12.5534C18.1578 12.8996 18.0776 12.9949 18.0218 13.092C17.9353 13.2424 17.8811 13.4093 17.8627 13.5819C17.8507 13.6932 17.8595 13.8174 17.9063 14.2792L18.0339 15.5395C18.1068 16.2594 18.1659 16.8429 18.1771 17.3059C18.1884 17.7718 18.1566 18.2171 17.9778 18.6167C17.578 19.51 16.7335 20.1236 15.7603 20.2277C15.3251 20.2743 14.8917 20.167 14.4521 20.0123C14.0152 19.8585 13.4785 19.622 12.8164 19.3302L11.6573 18.8194C11.2325 18.6322 11.1171 18.5855 11.0075 18.5624C10.8377 18.5266 10.6623 18.5266 10.4924 18.5624C10.3829 18.5855 10.2674 18.6322 9.84266 18.8194L8.68351 19.3302C8.02143 19.622 7.48472 19.8585 7.0478 20.0123C6.60824 20.167 6.17489 20.2743 5.73961 20.2277C4.76643 20.1236 3.92196 19.51 3.52216 18.6167C3.34335 18.2171 3.31153 17.7718 3.32283 17.3059C3.33406 16.8429 3.39315 16.2593 3.46604 15.5395L3.59364 14.2792C3.6404 13.8174 3.64921 13.6932 3.63729 13.5819C3.61882 13.4093 3.56461 13.2424 3.47811 13.092C3.42232 12.9949 3.34218 12.8996 3.0329 12.5534L2.18888 11.6088C1.70681 11.0693 1.31602 10.632 1.03476 10.264C0.751805 9.89374 0.515788 9.51477 0.425588 9.0864C0.223924 8.12866 0.546486 7.13592 1.27258 6.47963C1.59734 6.18609 2.01104 6.01823 2.45757 5.88502C2.90143 5.75261 3.47466 5.62848 4.18179 5.47536L5.41981 5.20728C5.87349 5.10903 5.99435 5.07902 6.09654 5.03329C6.25496 4.96239 6.39689 4.85928 6.51327 4.73051C6.58834 4.64746 6.65424 4.54178 6.88787 4.14067L7.52539 3.04611C7.88953 2.4209 8.18472 1.91407 8.44782 1.53285C8.71249 1.14933 8.99999 0.807756 9.37952 0.589597ZM11.3729 1.89006C10.9872 1.66836 10.5127 1.66836 10.127 1.89006C10.0437 1.93795 9.911 2.05355 9.68237 2.38484C9.45595 2.71292 9.18948 3.16937 8.80572 3.82825L8.18403 4.89562C8.17312 4.91436 8.16234 4.93288 8.1517 4.95117C7.9656 5.27107 7.81928 5.52258 7.62607 5.73633C7.37003 6.01961 7.05779 6.24646 6.70925 6.40244C6.44625 6.52014 6.16184 6.58157 5.80008 6.65972C5.7794 6.66419 5.75846 6.66871 5.73727 6.6733L4.53003 6.93472C3.78481 7.09609 3.26835 7.20847 2.88637 7.32242C2.50064 7.43749 2.34968 7.528 2.2784 7.59244C1.94836 7.89075 1.80174 8.34199 1.8934 8.77733C1.9132 8.87136 1.98212 9.03331 2.22655 9.35313C2.4686 9.66984 2.82037 10.0643 3.32842 10.6329L4.15143 11.554C4.16589 11.5702 4.18017 11.5861 4.19427 11.6019C4.44101 11.8778 4.63499 12.0946 4.77858 12.3444C4.96887 12.6755 5.08814 13.0426 5.12877 13.4222C5.15944 13.7087 5.12998 13.9982 5.09251 14.3664C5.09037 14.3875 5.0882 14.4088 5.08601 14.4303L4.96158 15.6593C4.88478 16.4179 4.83206 16.9438 4.82239 17.3423C4.81263 17.7447 4.85207 17.9163 4.89132 18.004C5.07304 18.41 5.45689 18.6889 5.89925 18.7363C5.99479 18.7465 6.17012 18.731 6.54982 18.5974C6.92583 18.465 7.4097 18.2524 8.10745 17.9449L9.23779 17.4468C9.25764 17.438 9.27724 17.4294 9.29661 17.4208C9.6352 17.2714 9.9014 17.154 10.1833 17.0946C10.557 17.0159 10.9429 17.0159 11.3166 17.0946C11.5985 17.154 11.8647 17.2714 12.2033 17.4208C12.2227 17.4294 12.2423 17.438 12.2622 17.4468L13.3925 17.9449C14.0902 18.2524 14.5741 18.465 14.9501 18.5974C15.3298 18.731 15.5052 18.7465 15.6007 18.7363C16.0431 18.6889 16.4269 18.41 16.6086 18.004C16.6479 17.9163 16.6873 17.7447 16.6776 17.3423C16.6679 16.9438 16.6152 16.4179 16.5384 15.6593L16.4139 14.4303C16.4117 14.4088 16.4096 14.3875 16.4074 14.3664C16.37 13.9982 16.3405 13.7087 16.3712 13.4222C16.4118 13.0426 16.5311 12.6755 16.7214 12.3444C16.865 12.0946 17.0589 11.8778 17.3057 11.6019C17.3198 11.5861 17.3341 11.5702 17.3485 11.554L18.1715 10.6329C18.6796 10.0643 19.0313 9.66984 19.2734 9.35313C19.5178 9.03331 19.5867 8.87136 19.6065 8.77733C19.6982 8.34199 19.5516 7.89075 19.2215 7.59244C19.1503 7.528 18.9993 7.43749 18.6136 7.32242C18.2316 7.20847 17.7151 7.0961 16.9699 6.93472L15.7627 6.6733C15.7415 6.66871 15.7205 6.66418 15.6999 6.65972C15.3381 6.58157 15.0537 6.52014 14.7907 6.40244C14.4422 6.24646 14.1299 6.01961 13.8739 5.73633C13.6807 5.52258 13.5343 5.27107 13.3482 4.95117C13.3376 4.93288 13.3268 4.91436 13.3159 4.89562L12.6942 3.82825C12.3105 3.16937 12.044 2.71292 11.8176 2.38484C11.5889 2.05355 11.4562 1.93795 11.3729 1.89006Z" fill="#6D51FF"/>
</svg>
