<svg width="20" height="19" viewBox="0 0 20 19" fill="none" xmlns="http://www.w3.org/2000/svg">
<path fill-rule="evenodd" clip-rule="evenodd" d="M5.50861 1.65811C5.4014 1.25801 4.99015 1.02057 4.59005 1.12778C3.79268 1.34143 3.08808 1.81223 2.58555 2.46714C2.08301 3.12206 1.81062 3.9245 1.81062 4.75C1.81062 5.5755 2.08301 6.37794 2.58555 7.03286C3.08808 7.68777 3.79268 8.15857 4.59005 8.37222C4.99015 8.47943 5.4014 8.24199 5.50861 7.84189C5.61582 7.44179 5.37838 7.03054 4.97828 6.92333C4.49985 6.79514 4.0771 6.51266 3.77558 6.11971C3.47406 5.72676 3.31062 5.2453 3.31062 4.75C3.31062 4.2547 3.47406 3.77324 3.77558 3.38029C4.0771 2.98734 4.49985 2.70486 4.97828 2.57667C5.37838 2.46946 5.61582 2.05821 5.50861 1.65811Z" fill="#6D51FF"/>
<path fill-rule="evenodd" clip-rule="evenodd" d="M4.31062 11.75C4.31062 11.3358 3.97484 11 3.56062 11H3.2532C1.92426 11 0.729212 11.8091 0.235656 13.043C-0.618268 15.1778 0.953945 17.5 3.2532 17.5H3.56062C3.97484 17.5 4.31062 17.1642 4.31062 16.75C4.31062 16.3358 3.97484 16 3.56062 16H3.2532C2.01514 16 1.16857 14.7496 1.62837 13.6001C1.89413 12.9357 2.53762 12.5 3.2532 12.5H3.56062C3.97484 12.5 4.31062 12.1642 4.31062 11.75Z" fill="#6D51FF"/>
<path fill-rule="evenodd" clip-rule="evenodd" d="M11.5606 1.5C9.7657 1.5 8.31062 2.95507 8.31062 4.75C8.31062 6.54493 9.7657 8 11.5606 8C13.3555 8 14.8106 6.54493 14.8106 4.75C14.8106 2.95507 13.3555 1.5 11.5606 1.5ZM6.81062 4.75C6.81062 2.12665 8.93727 0 11.5606 0C14.184 0 16.3106 2.12665 16.3106 4.75C16.3106 7.37335 14.184 9.5 11.5606 9.5C8.93727 9.5 6.81062 7.37335 6.81062 4.75Z" fill="#6D51FF"/>
<path fill-rule="evenodd" clip-rule="evenodd" d="M8.27032 10.7778H14.8509C14.9133 10.7778 14.9561 10.7778 14.9967 10.7787C16.4378 10.8098 17.7336 11.6642 18.3299 12.9765C18.3467 13.0135 18.3636 13.0529 18.3881 13.1102L18.3992 13.1361C18.4504 13.2556 18.4847 13.3356 18.5095 13.3999C19.4367 15.8025 17.7218 18.4033 15.1482 18.4975C15.0793 18.5 14.9923 18.5 14.8621 18.5H8.25915C8.12897 18.5 8.04192 18.5 7.97307 18.4975C5.39946 18.4033 3.68451 15.8025 4.61172 13.3999C4.63652 13.3356 4.67082 13.2556 4.7221 13.1359L4.73314 13.1102C4.7577 13.0529 4.77457 13.0135 4.79138 12.9765C5.38767 11.6642 6.6834 10.8098 8.12452 10.7787C8.16513 10.7778 8.20797 10.7778 8.27032 10.7778ZM8.27874 12.2778C8.20483 12.2778 8.17924 12.2778 8.1569 12.2783C7.29223 12.297 6.51479 12.8096 6.15702 13.597C6.14777 13.6174 6.13766 13.6409 6.10854 13.7088C6.0468 13.8529 6.02462 13.905 6.01113 13.9399C5.4548 15.3815 6.48377 16.942 8.02794 16.9985C8.06539 16.9999 8.12202 17 8.27874 17H14.8425C14.9992 17 15.0559 16.9999 15.0933 16.9985C16.6375 16.942 17.6664 15.3815 17.1101 13.9399C17.0966 13.905 17.0744 13.8529 17.0127 13.7088C16.9836 13.6409 16.9735 13.6174 16.9642 13.597C16.6065 12.8096 15.829 12.297 14.9643 12.2783C14.942 12.2778 14.9164 12.2778 14.8425 12.2778H8.27874Z" fill="#6D51FF"/>
</svg>
