<svg width="20" height="19" viewBox="0 0 20 19" fill="none" xmlns="http://www.w3.org/2000/svg">
<path fill-rule="evenodd" clip-rule="evenodd" d="M5.75861 1.65811C5.6514 1.25801 5.24015 1.02057 4.84005 1.12778C4.04268 1.34143 3.33808 1.81223 2.83555 2.46714C2.33301 3.12206 2.06062 3.9245 2.06062 4.75C2.06062 5.5755 2.33301 6.37794 2.83555 7.03286C3.33808 7.68777 4.04268 8.15857 4.84005 8.37222C5.24015 8.47943 5.6514 8.24199 5.75861 7.84189C5.86582 7.44179 5.62838 7.03054 5.22828 6.92333C4.74986 6.79514 4.3271 6.51266 4.02558 6.11971C3.72406 5.72676 3.56062 5.2453 3.56062 4.75C3.56062 4.2547 3.72406 3.77324 4.02558 3.38029C4.3271 2.98734 4.74986 2.70486 5.22828 2.57667C5.62838 2.46946 5.86582 2.05821 5.75861 1.65811Z" fill="#7D8588"/>
<path fill-rule="evenodd" clip-rule="evenodd" d="M4.56062 11.75C4.56062 11.3358 4.22484 11 3.81062 11H3.5032C2.17426 11 0.979212 11.8091 0.485656 13.043C-0.368268 15.1778 1.20394 17.5 3.5032 17.5H3.81062C4.22484 17.5 4.56062 17.1642 4.56062 16.75C4.56062 16.3358 4.22484 16 3.81062 16H3.5032C2.26514 16 1.41857 14.7496 1.87837 13.6001C2.14413 12.9357 2.78762 12.5 3.5032 12.5H3.81062C4.22484 12.5 4.56062 12.1642 4.56062 11.75Z" fill="#7D8588"/>
<path fill-rule="evenodd" clip-rule="evenodd" d="M11.8106 1.5C10.0157 1.5 8.56062 2.95507 8.56062 4.75C8.56062 6.54493 10.0157 8 11.8106 8C13.6055 8 15.0606 6.54493 15.0606 4.75C15.0606 2.95507 13.6055 1.5 11.8106 1.5ZM7.06062 4.75C7.06062 2.12665 9.18727 0 11.8106 0C14.434 0 16.5606 2.12665 16.5606 4.75C16.5606 7.37335 14.434 9.5 11.8106 9.5C9.18727 9.5 7.06062 7.37335 7.06062 4.75Z" fill="#7D8588"/>
<path fill-rule="evenodd" clip-rule="evenodd" d="M8.52032 10.7778H15.1009C15.1633 10.7778 15.2061 10.7778 15.2467 10.7787C16.6878 10.8098 17.9836 11.6642 18.5799 12.9765C18.5967 13.0135 18.6136 13.0529 18.6381 13.1102L18.6492 13.1361C18.7004 13.2556 18.7347 13.3356 18.7595 13.3999C19.6867 15.8025 17.9718 18.4033 15.3982 18.4975C15.3293 18.5 15.2423 18.5 15.1121 18.5H8.50915C8.37897 18.5 8.29192 18.5 8.22307 18.4975C5.64946 18.4033 3.93451 15.8025 4.86172 13.3999C4.88652 13.3356 4.92082 13.2556 4.9721 13.1359L4.98314 13.1102C5.0077 13.0529 5.02457 13.0135 5.04138 12.9765C5.63767 11.6642 6.9334 10.8098 8.37452 10.7787C8.41513 10.7778 8.45798 10.7778 8.52032 10.7778ZM8.52874 12.2778C8.45483 12.2778 8.42924 12.2778 8.4069 12.2783C7.54223 12.297 6.76479 12.8096 6.40702 13.597C6.39777 13.6174 6.38766 13.6409 6.35854 13.7088C6.2968 13.8529 6.27462 13.905 6.26113 13.9399C5.7048 15.3815 6.73377 16.942 8.27794 16.9985C8.31539 16.9999 8.37202 17 8.52874 17H15.0925C15.2492 17 15.3059 16.9999 15.3433 16.9985C16.8875 16.942 17.9164 15.3815 17.3601 13.9399C17.3466 13.905 17.3244 13.8529 17.2627 13.7088C17.2336 13.6409 17.2235 13.6174 17.2142 13.597C16.8565 12.8096 16.079 12.297 15.2143 12.2783C15.192 12.2778 15.1664 12.2778 15.0925 12.2778H8.52874Z" fill="#7D8588"/>
</svg>
